<mxfile host="65bd71144e">
    <diagram id="loprL8QRiNHQ4vWIdYoD" name="Page-1">
        <mxGraphModel dx="1031" dy="778" grid="1" gridSize="10" guides="1" tooltips="1" connect="1" arrows="1" fold="1" page="1" pageScale="1" pageWidth="850" pageHeight="1100" math="0" shadow="0">
            <root>
                <mxCell id="0"/>
                <mxCell id="1" parent="0"/>
                <mxCell id="15" value="" style="rounded=0;whiteSpace=wrap;html=1;fillColor=#f5f5f5;gradientColor=#b3b3b3;strokeColor=#666666;" vertex="1" parent="1">
                    <mxGeometry x="15" y="140" width="240" height="780" as="geometry"/>
                </mxCell>
                <mxCell id="2" value="" style="whiteSpace=wrap;html=1;aspect=fixed;" vertex="1" parent="1">
                    <mxGeometry x="285" y="270" width="525" height="525" as="geometry"/>
                </mxCell>
                <mxCell id="3" value="basic calendar" style="rounded=1;whiteSpace=wrap;html=1;" vertex="1" parent="1">
                    <mxGeometry x="487.5" y="190" width="120" height="60" as="geometry"/>
                </mxCell>
                <mxCell id="4" value="event!" style="rounded=0;whiteSpace=wrap;html=1;" vertex="1" parent="1">
                    <mxGeometry x="285" y="290" width="120" height="20" as="geometry"/>
                </mxCell>
                <mxCell id="5" value="profile picture" style="whiteSpace=wrap;html=1;aspect=fixed;" vertex="1" parent="1">
                    <mxGeometry x="30" y="160" width="80" height="80" as="geometry"/>
                </mxCell>
                <mxCell id="7" value="all upcoming events &lt;br&gt;(events will only appear here within 2 weeks of current date)" style="rounded=0;whiteSpace=wrap;html=1;" vertex="1" parent="1">
                    <mxGeometry x="35" y="250" width="200" height="80" as="geometry"/>
                </mxCell>
                <mxCell id="8" value="basic profile info&lt;br&gt;name, etc" style="rounded=0;whiteSpace=wrap;html=1;" vertex="1" parent="1">
                    <mxGeometry x="150" y="160" width="90" height="80" as="geometry"/>
                </mxCell>
                <mxCell id="9" value="RANDOMIZER&amp;nbsp; &amp;nbsp;CALENDAR&amp;nbsp; YOUR-GIFTS&amp;nbsp; FIND-EVENT&amp;nbsp; HOST-EVENT" style="rounded=0;whiteSpace=wrap;html=1;" vertex="1" parent="1">
                    <mxGeometry x="105" y="50" width="640" height="60" as="geometry"/>
                </mxCell>
                <mxCell id="11" value="logout" style="rounded=0;whiteSpace=wrap;html=1;" vertex="1" parent="1">
                    <mxGeometry x="655" y="130" width="90" height="30" as="geometry"/>
                </mxCell>
                <mxCell id="13" value="ToS/Privacy&lt;br&gt;Your privacy is our top priority. Information stored on this site will not be given out nor advertised anywhere. All information regarding events is confidential and will not be shared." style="rounded=0;whiteSpace=wrap;html=1;" vertex="1" parent="1">
                    <mxGeometry y="960" width="850" height="140" as="geometry"/>
                </mxCell>
                <mxCell id="16" value="Your hosted events go here" style="rounded=0;whiteSpace=wrap;html=1;" vertex="1" parent="1">
                    <mxGeometry x="30" y="340" width="210" height="240" as="geometry"/>
                </mxCell>
                <mxCell id="17" value="Events you are a part of go here" style="rounded=0;whiteSpace=wrap;html=1;" vertex="1" parent="1">
                    <mxGeometry x="30" y="600" width="210" height="300" as="geometry"/>
                </mxCell>
            </root>
        </mxGraphModel>
    </diagram>
</mxfile>